<?xml version="1.0" encoding="UTF-8" standalone="no"?>
<!-- Created with Inkscape (http://www.inkscape.org/) -->

<svg
   width="883.54791mm"
   height="231.73938mm"
   viewBox="0 0 883.54791 231.73938"
   version="1.1"
   id="svg5"
   xml:space="preserve"
   inkscape:version="1.2.2 (732a01da63, 2022-12-09)"
   sodipodi:docname="acharii text.svg"
   xmlns:inkscape="http://www.inkscape.org/namespaces/inkscape"
   xmlns:sodipodi="http://sodipodi.sourceforge.net/DTD/sodipodi-0.dtd"
   xmlns="http://www.w3.org/2000/svg"
   xmlns:svg="http://www.w3.org/2000/svg"><sodipodi:namedview
     id="namedview7"
     pagecolor="#ffffff"
     bordercolor="#000000"
     borderopacity="0.25"
     inkscape:showpageshadow="2"
     inkscape:pageopacity="0.0"
     inkscape:pagecheckerboard="0"
     inkscape:deskcolor="#d1d1d1"
     inkscape:document-units="mm"
     showgrid="false"
     inkscape:zoom="0.13055262"
     inkscape:cx="-478.73419"
     inkscape:cy="474.90431"
     inkscape:window-width="1920"
     inkscape:window-height="1009"
     inkscape:window-x="1912"
     inkscape:window-y="-8"
     inkscape:window-maximized="1"
     inkscape:current-layer="layer1" /><defs
     id="defs2" /><g
     inkscape:label="Layer 1"
     inkscape:groupmode="layer"
     id="layer1"
     transform="translate(365.47367,2.3752827)"><g
       id="g893"><path
         style="fill:#ff9e00;fill-opacity:1;stroke-width:0.264583"
         d="m 496.5107,50.053468 c 1.71704,-0.774753 3.39972,-2.439564 4.09181,-4.048363 0.77939,-1.811708 1.11927,-4.87643 0.79468,-7.165208 -0.50816,-3.582961 -1.94395,-5.653193 -4.85312,-6.997541 -1.51688,-0.700987 -1.84187,-0.749036 -5.066,-0.749036 -3.36183,0 -3.48798,0.02117 -5.21611,0.871829 -2.0335,1.001104 -3.13007,2.185776 -3.96864,4.287546 -0.49096,1.230498 -0.58206,1.98636 -0.58994,4.894792 -0.008,2.952036 0.0696,3.61024 0.54779,4.643649 1.1284,2.438744 3.34738,4.190603 6.01911,4.751996 0.60317,0.126762 2.40636,0.20275 4.00709,0.168857 2.36387,-0.05003 3.15884,-0.173699 4.23333,-0.658521 z"
         id="path326" /><path
         style="fill:#ff9e00;fill-opacity:1;stroke-width:0.264583"
         d="m 410.65503,49.973668 c 0.80124,-0.367401 1.86293,-1.074129 2.35929,-1.570488 1.94072,-1.940719 2.91785,-5.781093 2.40644,-9.457928 -0.51139,-3.676809 -1.92858,-5.745374 -4.86627,-7.102898 -1.51646,-0.700802 -1.84243,-0.749036 -5.06045,-0.749036 -3.23485,0 -3.5382,0.04554 -5.09635,0.765149 -3.12148,1.441556 -4.49937,3.872547 -4.75451,8.388165 -0.22498,3.981873 0.53763,6.437233 2.5695,8.272886 1.90145,1.717886 4.04307,2.300525 8.07511,2.196967 2.4512,-0.06297 3.14026,-0.180181 4.36724,-0.742817 z"
         id="path324" /><path
         style="fill:#ff9e00;fill-opacity:1;stroke-width:0.264583"
         d="m 518.07425,221.11716 v -1.66677 l -2.21552,-0.32033 c -3.00074,-0.43387 -4.99414,-1.15647 -7.05379,-2.55702 -3.3093,-2.25025 -5.43645,-5.48925 -6.60463,-10.05686 -0.52089,-2.0366 -0.52822,-2.97804 -0.53126,-68.17265 -0.003,-36.35912 -0.0797,-66.107493 -0.17325,-66.107493 -0.0936,0 -2.20602,0.940038 -4.69429,2.088964 -2.48828,1.148954 -7.67929,3.541925 -11.5356,5.317729 -3.8563,1.77583 -8.12244,3.752823 -9.48033,4.393326 -1.3579,0.640504 -2.51447,1.164564 -2.57017,1.164564 -0.0557,0 -1.44499,0.631349 -3.08737,1.403033 -1.64235,0.771657 -4.90595,2.289704 -7.25244,3.373437 l -4.26635,1.970405 11.48212,0.06892 11.4821,0.06895 -0.0747,56.684175 c -0.07,53.13691 -0.10374,56.78356 -0.53901,58.27171 -0.87251,2.98301 -2.18927,5.27068 -3.9684,6.89445 -3.47769,3.17397 -6.24142,4.59299 -10.1201,5.196 l -1.97829,0.30755 v 1.67235 1.67235 h 26.59062 26.59063 z"
         id="path322" /><path
         style="fill:#ff9e00;fill-opacity:1;stroke-width:0.264583"
         d="m 432.08466,221.11716 v -1.66677 l -2.21551,-0.32033 c -2.80776,-0.40598 -4.75255,-1.0753 -6.64869,-2.28822 -3.33269,-2.13191 -5.91436,-5.92503 -7.01445,-10.30595 -0.51731,-2.06018 -0.52551,-3.12433 -0.52551,-68.19635 0,-36.35693 -0.0611,-66.103503 -0.13584,-66.103503 -0.14478,0 -3.49062,1.511644 -9.52145,4.301781 -2.0373,0.942525 -8.10948,3.741076 -13.49376,6.219005 -5.38427,2.477928 -12.1113,5.587153 -14.94895,6.909382 l -5.15938,2.40403 11.57552,0.0048 11.57552,0.0048 v 55.496345 c 0,58.51436 0.0122,57.81776 -1.15789,61.26391 -0.91578,2.69732 -3.46951,5.60372 -6.83898,7.78341 -2.17625,1.40781 -3.9923,2.08843 -6.69258,2.50825 l -1.97829,0.30755 v 1.67236 1.67234 h 26.59062 26.59063 v -1.66679 z"
         id="path320" /><path
         style="fill:#ff9e00;fill-opacity:1;stroke-width:0.264583"
         d="m 297.27945,220.93187 v -1.71979 l -1.97873,-0.19727 c -6.79331,-0.67726 -11.80235,-5.12308 -13.83189,-12.27654 l -0.58965,-2.07828 -0.0831,-44.71458 c -0.0845,-45.49492 -0.0404,-48.07535 0.90008,-52.65208 0.88138,-4.28911 2.68883,-8.549906 5.21489,-12.293364 2.59283,-3.842437 7.69932,-8.507941 11.85574,-10.831935 5.00747,-2.799874 12.28397,-3.811191 15.30106,-2.126589 1.51006,0.843148 2.01951,1.575938 2.65608,3.820636 0.68066,2.400274 1.99255,5.458063 3.09493,7.213812 2.34879,3.740891 5.31858,5.089313 11.20886,5.089313 3.1664,0 6.57741,-0.574833 8.87945,-1.496404 2.06615,-0.82714 4.35369,-2.901447 5.11736,-4.640394 1.18356,-2.694967 1.30278,-6.787912 0.29138,-10.002785 -1.92876,-6.130925 -8.47812,-9.500685 -19.38578,-9.974368 -9.56117,-0.415211 -19.6246,2.600034 -30.76739,9.218612 -6.55191,3.891677 -11.88593,8.547682 -13.55707,11.833781 l -0.85706,1.685316 -0.069,-11.364118 -0.069,-11.364146 -2.26653,1.079871 c -1.24659,0.59391 -2.91346,1.369298 -3.70417,1.723099 -0.79071,0.353774 -2.5092,1.150038 -3.81889,1.769427 -1.30969,0.619416 -9.20824,4.279609 -17.55235,8.133768 -8.34411,3.854159 -15.23982,7.076281 -15.32379,7.16026 -0.084,0.08395 5.04721,0.152665 11.40261,0.152665 h 11.55531 l -0.0167,55.628643 c -0.0175,58.32716 -0.008,57.85416 -1.13316,60.95638 -0.71009,1.95876 -1.28743,2.8449 -3.06133,4.69863 -3.1165,3.25675 -6.83313,5.25486 -10.47697,5.63255 -0.87313,0.0905 -1.67498,0.29523 -1.78189,0.4549 -0.3342,0.49919 -0.23218,3.01236 0.12824,3.15852 0.1819,0.0738 12.11792,0.11345 26.52448,0.0882 l 26.19375,-0.0459 v -1.71979 z"
         id="path318" /><path
         style="fill:#ff9e00;fill-opacity:1;stroke-width:0.264583"
         d="m -13.502377,221.09096 -0.04657,-1.69301 -1.748287,-0.17775 c -7.158382,-0.72787 -12.17766,-5.19803 -14.120628,-12.57583 l -0.592269,-2.24896 V 158.4902 c 0,-47.7947 -0.0093,-47.33914 1.101143,-53.43861 0.494744,-2.71727 1.611788,-6.207307 2.832126,-8.848563 3.458871,-7.48628 8.829172,-11.664447 17.7089594,-13.77778 4.2539708,-1.012402 7.0857798,-1.305402 12.4890213,-1.292119 5.4840452,0.01349 8.4706883,0.460851 12.3649583,1.852242 10.353093,3.699113 18.598832,13.405538 21.405956,25.19791 1.286483,5.40449 1.275715,4.96731 1.281218,51.93133 0.0056,47.95012 0.05016,46.4194 -1.450049,49.8117 -0.399018,0.90223 -1.365462,2.2201 -2.517431,3.43284 -3.092582,3.25567 -6.551745,5.16599 -10.452656,5.77244 l -1.978871,0.30766 v 1.67235 1.67235 H 49.23258 75.690913 v -1.68896 -1.68897 l -1.785937,-0.18987 c -5.744845,-0.61068 -10.225458,-3.72787 -12.649809,-8.80049 -1.976913,-4.13644 -1.807501,0.17756 -1.982152,-50.47025 -0.163777,-47.50117 -0.144727,-46.75148 -1.32379,-52.05277 C 55.084184,95.011043 47.759142,85.210267 36.091017,78.646749 32.231804,76.475895 27.082827,74.487816 22.906538,73.556086 12.902881,71.324299 1.4976456,71.59293 -6.492824,74.248606 c -8.810599,2.928223 -17.127167,9.53733 -22.746494,18.076439 l -0.77081,1.171337 -0.132292,-47.935832 -0.132292,-47.9358327 -4.497916,2.14259583 c -5.206233,2.48001897 -8.2432,3.91747377 -10.847917,5.13453067 -1.018646,0.4759589 -3.697552,1.7495043 -5.953125,2.8301156 -2.255573,1.0805848 -6.601354,3.1447586 -9.657292,4.5870546 -3.055937,1.44227 -6.925468,3.311949 -8.598958,4.154858 l -3.042708,1.53252 11.446854,-0.102844 11.446827,-0.10287 -0.07191,93.826542 c -0.06951,90.65593 -0.08861,93.88462 -0.565414,95.54631 -0.863389,3.00892 -1.724343,4.51384 -3.714486,6.49277 -3.23035,3.21214 -6.44099,4.9285 -10.218631,5.46274 l -2.105528,0.29776 v 1.67857 1.67857 h 26.599568 26.599568 z"
         id="path316" /><path
         id="path314"
         style="fill:#ff9e00;fill-opacity:1;stroke-width:0.264583"
         d="m 152.57363,72.312899 c -12.20849,0.05357 -22.61369,3.014062 -31.10973,8.856823 -4.55818,3.134701 -7.8828,6.162302 -10.38179,9.454721 -4.52308,5.959205 -6.05895,13.320167 -4.03645,19.345067 1.74958,5.21189 3.76654,6.63096 9.0842,6.39083 5.29418,-0.23911 7.20768,-2.04839 6.9324,-6.55361 -0.0667,-1.0914 -0.11687,-3.88937 -0.11163,-6.2177 0.009,-3.853919 0.0725,-4.423046 0.71004,-6.350004 1.04244,-3.150947 2.39384,-5.249133 5.21157,-8.091496 4.8928,-4.935612 10.87816,-8.116221 17.68522,-9.397359 3.1804,-0.598567 10.09132,-0.388638 13.23485,0.402043 7.94475,1.998343 14.40936,6.865563 18.01286,13.561446 1.25547,2.332855 2.48094,5.902945 3.07371,8.95449 0.55732,2.869 0.88101,21.44785 0.40153,23.04821 -0.78986,2.63632 -7.52274,6.25557 -18.40921,9.89552 -0.58208,0.19463 -3.61819,1.12954 -6.74688,2.07791 -20.89733,6.33438 -33.79052,11.34956 -41.34786,16.08274 -9.09115,5.69382 -15.154877,12.53978 -17.677994,19.95795 -1.241873,3.65122 -1.642773,6.74078 -1.472778,11.35021 0.488208,13.23659 4.164456,24.07622 10.830862,31.93449 6.03586,7.11504 12.82047,10.69728 22.94485,12.1145 2.49312,0.34898 12.28541,0.10658 16.13959,-0.39946 15.28271,-2.00651 25.80501,-6.60748 33.43568,-14.61926 0.87033,-0.91377 1.75895,-1.91324 1.97456,-2.22105 0.36668,-0.52354 0.4464,-0.343 1.23248,2.79569 1.60512,6.40916 4.32577,10.25132 8.8837,12.54549 5.06557,2.54971 12.24401,2.8179 17.63716,0.65888 4.768,-1.90875 10.08548,-7.35208 12.75478,-13.05657 2.30045,-4.91617 2.74053,-12.29982 0.96222,-16.13752 -0.23326,-0.50337 -0.36937,-0.71459 -0.30283,-0.46974 0.68212,2.50915 0.24105,6.15365 -1.05471,8.71627 -2.21433,4.37921 -5.80611,7.09646 -9.68572,7.3272 -5.6031,0.33324 -8.7625,-3.87704 -9.73532,-12.97285 -0.17915,-1.67513 -0.27492,-18.68687 -0.27492,-48.88332 0,-49.69489 0.0332,-48.32929 -1.31775,-53.759513 -1.05902,-4.256824 -3.31244,-8.846964 -5.86786,-11.952242 -1.41227,-1.716113 -4.94873,-4.92841 -6.74636,-6.127792 -7.12943,-4.756727 -16.40864,-7.304516 -29.52016,-8.105965 -1.81735,-0.111085 -3.59824,-0.162683 -5.34231,-0.155029 z m 28.63081,63.820391 c 0.27806,-0.1012 0.32493,4.71346 0.2527,25.86664 -0.0884,25.88622 -0.0911,26.00041 -0.67748,28.21223 -1.06545,4.01915 -3.22971,8.05031 -5.99085,11.15849 -5.94412,6.69129 -15.67817,12.21008 -25.20983,14.29267 -2.0535,0.44868 -3.72118,0.58413 -8.13903,0.66146 -3.05594,0.0535 -5.67532,0.0522 -5.82084,-0.003 v 5.2e-4 c -0.14552,-0.0549 -1.15755,-0.30422 -2.24896,-0.55397 -7.56588,-1.73133 -12.68939,-7.16453 -15.58974,-16.53233 -1.59443,-5.14982 -2.67396,-14.59992 -2.14974,-18.81849 1.85037,-14.89039 15.83533,-26.91003 43.27178,-37.19101 4.73527,-1.77443 12.11109,-4.18296 17.3302,-5.65909 2.54661,-0.72028 4.78389,-1.36562 4.97179,-1.43402 z" /><path
         style="fill:#ff9e00;fill-opacity:1;stroke-width:0.264583"
         d="m -138.48554,228.75162 c 13.02801,-1.87293 23.68513,-7.6767 32.07398,-17.46713 4.62503,-5.39774 9.648115,-13.85917 12.492862,-21.0443 0.489717,-1.23692 1.051481,-2.63591 1.248357,-3.10885 0.196877,-0.47294 0.31758,-0.8599 0.268288,-0.8599 -0.04932,0 -0.671381,0.92274 -1.382342,2.05052 -8.646555,13.71561 -19.146865,21.89795 -32.303325,25.17233 -5.48722,1.36567 -6.62493,1.48534 -13.98907,1.47164 -5.96445,-0.0111 -7.30134,-0.0915 -10.05417,-0.60481 -4.99563,-0.93149 -8.28852,-1.90355 -12.43542,-3.67088 -16.17607,-6.89399 -29.8668,-23.80372 -35.0565,-43.29909 -0.82835,-3.11179 -1.71775,-7.92459 -1.99046,-10.77101 -0.0897,-0.93599 -0.20627,-1.83906 -0.25913,-2.00681 -0.0528,-0.16772 -0.17521,-2.37037 -0.27191,-4.89479 -0.6712,-17.51999 4.12924,-32.77087 14.39497,-45.73251 7.50615,-9.477405 16.95328,-15.930751 27.4438,-18.746976 8.92816,-2.396755 15.44122,-2.327487 22.12012,0.235294 2.2611,0.867595 2.74005,1.11932 8.80869,4.629467 2.32834,1.34673 4.94038,2.848266 5.80457,3.336767 4.50207,2.544868 5.2229,4.716065 3.97856,11.983928 -1.2211,7.13224 -0.65656,10.76963 2.09767,13.51537 2.2184,2.21155 5.02507,3.24504 9.48873,3.49401 6.391405,0.3565 11.094929,-1.71503 13.18826,-5.80837 1.011793,-1.9785 1.354958,-4.30665 1.219544,-8.27387 -0.102315,-2.9976 -0.261911,-4.15838 -0.836666,-6.08541 -1.360937,-4.56293 -3.834765,-8.636375 -7.588168,-12.494794 -10.2362,-10.522559 -25.38855,-16.188875 -44.41812,-16.61041 -13.76738,-0.304985 -24.26242,1.901561 -35.21273,7.403307 -13.51968,6.792674 -26.01423,19.428327 -32.99844,33.371097 -3.46366,6.91465 -5.49635,13.46608 -6.84604,22.06517 -0.67231,4.28345 -0.67352,18.74935 -0.003,24.34167 1.2522,10.42844 3.28795,18.86138 6.30852,26.13242 8.26164,19.88732 23.88795,34.21795 43.5253,39.91628 4.50197,1.30636 11.5769,2.47896 17.15561,2.84337 2.93217,0.19153 11.35222,-0.0982 14.02668,-0.48273 z"
         id="path310" /><path
         id="path308"
         style="fill:#ff9e00;fill-opacity:1;stroke-width:0.264583"
         d="m -308.83645,72.298946 c -13.72201,0.102693 -24.87728,3.839762 -34.40616,11.473718 -7.35452,5.891974 -11.21215,12.285176 -11.71867,19.421036 -0.19726,2.7791 0.18835,5.18455 1.28726,8.03414 1.48168,3.84208 3.60049,5.1949 8.13025,5.19193 3.84427,-0.003 5.86451,-0.91444 6.9479,-3.13676 0.50933,-1.04476 0.58145,-1.54207 0.48731,-3.34398 -0.0608,-1.16416 -0.10848,-4.02167 -0.10594,-6.35 0.004,-3.83344 0.0693,-4.427529 0.68678,-6.291093 1.02357,-3.08914 2.61831,-5.554856 5.3449,-8.263578 2.78288,-2.764655 5.40781,-4.635289 9.06042,-6.45697 4.54353,-2.265995 8.6706,-3.227482 13.88029,-3.233912 8.97712,-0.01111 16.20093,2.910586 21.81883,8.824785 4.23057,4.453699 6.71912,10.221066 7.48585,17.349328 0.16104,1.49731 0.2925,6.61699 0.29197,11.37708 0,8.09995 -0.0341,8.70896 -0.5147,9.4971 -1.91585,3.14206 -10.77181,7.13555 -25.41344,11.45976 -1.52796,0.45127 -6.75611,2.12677 -11.61789,3.72329 -14.19246,4.6605 -23.67073,8.65937 -29.65711,12.51242 -10.3375,6.65357 -16.10109,13.95792 -18.18545,23.04717 -0.53046,2.31317 -0.59563,10.2158 -0.11472,13.89941 1.56962,12.02274 5.59388,21.16402 12.3765,28.11456 5.32094,5.45266 11.5216,8.49728 20.07888,9.85883 3.04615,0.48469 12.39386,0.33636 17.06563,-0.27078 11.02854,-1.4333 19.43161,-4.22481 26.45833,-8.78913 3.27842,-2.12958 6.68408,-5.1552 8.66769,-7.70031 l 0.68574,-0.87953 0.81753,3.26078 c 2.39473,9.54973 7.53505,13.95969 17.10489,14.67404 7.98192,0.59582 14.96671,-3.12714 19.9776,-10.64844 3.0283,-4.54552 4.17304,-8.22186 4.19251,-13.46481 0.0106,-2.87628 -0.0873,-3.75825 -0.59738,-5.38572 -0.33549,-1.0704 -0.65038,-1.90384 -0.6997,-1.85209 -0.0493,0.0518 0.032,0.79553 0.18086,1.65262 0.54422,3.13211 -0.62607,6.9982 -3.08611,10.19524 -2.21652,2.88052 -5.22875,4.51807 -8.31009,4.51807 -4.77744,0 -7.53242,-3.16326 -8.95604,-10.28361 -0.41886,-2.09508 -0.47012,-6.32803 -0.61598,-51.23201 -0.16992,-52.30172 -0.0966,-49.45204 -1.40302,-54.543445 -0.98698,-3.846508 -3.26881,-8.436001 -5.67252,-11.408089 -6.99388,-8.647553 -18.50431,-13.254467 -35.91202,-14.373283 -2.0678,-0.132903 -4.08069,-0.192437 -6.04098,-0.177767 z m 28.75846,63.966124 c 0.39853,0 0.43343,1.98068 0.43201,24.5401 -0.003,26.21844 -0.0513,27.38154 -1.33222,31.28698 -0.31022,0.94588 -1.10714,2.75517 -1.77095,4.02043 -4.6734,8.90764 -16.3989,16.83399 -28.945,19.56676 -3.70724,0.80751 -12.72497,0.94401 -15.74995,0.23823 -10.86277,-2.53441 -16.65813,-11.8908 -18.08468,-29.19512 -0.42852,-5.198 0.0201,-8.78824 1.59784,-12.7863 5.84109,-14.79987 25.62741,-26.83448 60.6118,-36.86596 1.54422,-0.44281 3.00273,-0.80512 3.24115,-0.80512 z" /></g></g></svg>
